<?xml version="1.0" encoding="UTF-8" standalone="no"?>
<!-- Created with Inkscape (http://www.inkscape.org/) -->

<svg
   width="9.6751709mm"
   height="9.77565mm"
   viewBox="0 0 9.6751709 9.77565"
   version="1.1"
   id="svg5"
   xml:space="preserve"
   xmlns="http://www.w3.org/2000/svg"><defs
     id="defs2"><clipPath
       id="7d0b75147a"><path
         d="M 2.46875,0.605469 H 30.0625 V 28.945312 H 2.46875 Z m 0,0"
         clip-rule="nonzero"
         id="path1751" /></clipPath></defs><g
     id="layer1"
     transform="translate(-174.47652,-95.099355)"><g
       id="g1941"
       transform="matrix(0.35277778,0,0,0.35277778,174.47651,95.099357)"><g
         clip-path="url(#7d0b75147a)"
         id="g1862"
         transform="translate(-2.6317475,-0.73283592)"><path
           fill="#172627"
           d="m 27.027344,22.964844 -2.058594,0.292968 c -0.414062,0.05469 -0.75,0.359376 -0.847656,0.765626 l -0.492188,2.023437 c -0.136718,0.570313 -0.730468,0.90625 -1.292968,0.726563 l -1.984376,-0.632813 c -0.394531,-0.128906 -0.828124,0 -1.09375,0.320313 L 17.9375,28.074219 c -0.371094,0.453125 -1.054688,0.496093 -1.480469,0.08984 l -1.511719,-1.429687 c -0.304687,-0.285156 -0.75,-0.359375 -1.128906,-0.183594 l -1.886718,0.878907 c -0.535157,0.246093 -1.167969,-0.0078 -1.375,-0.558594 L 9.8125,24.925781 C 9.664062,24.535156 9.292969,24.277344 8.878906,24.269531 L 6.796875,24.242188 C 6.207031,24.234375 5.75,23.726562 5.800781,23.140625 L 5.976562,21.066406 C 6.011719,20.652344 5.789062,20.257812 5.417969,20.074219 L 3.554688,19.144531 C 3.027344,18.882812 2.832031,18.226562 3.132812,17.71875 L 4.191406,15.925781 C 4.402344,15.566406 4.375,15.117188 4.121094,14.789062 L 2.84375,13.144531 c -0.359375,-0.46875 -0.25,-1.140625 0.238281,-1.46875 L 4.8125,10.519531 C 5.160156,10.289062 5.332031,9.871094 5.242188,9.464844 L 4.808594,7.429688 c -0.125,-0.578126 0.269531,-1.136719 0.851562,-1.21875 l 2.0625,-0.289063 C 8.132812,5.863281 8.46875,5.558594 8.566406,5.15625 L 9.058594,3.132812 C 9.195312,2.558594 9.792969,2.226562 10.351562,2.40625 l 1.984376,0.632812 c 0.394531,0.125 0.828124,-0.00391 1.09375,-0.324218 L 14.75,1.105469 c 0.371094,-0.457031 1.054688,-0.5 1.480469,-0.09375 l 1.515625,1.429687 c 0.300781,0.289063 0.746094,0.359375 1.125,0.183594 L 20.757812,1.75 c 0.535157,-0.25 1.167969,0.00781 1.375,0.558594 L 22.875,4.253906 c 0.148438,0.386719 0.519531,0.648438 0.933594,0.652344 l 2.082031,0.027344 c 0.589844,0.011718 1.046875,0.515625 1,1.101562 l -0.175781,2.074219 c -0.03516,0.414063 0.183594,0.808594 0.558594,0.996094 l 1.859374,0.929687 c 0.527344,0.261719 0.722657,0.917969 0.421876,1.421875 L 28.496094,13.25 c -0.210938,0.359375 -0.183594,0.808594 0.07422,1.140625 l 1.273438,1.644531 C 30.207031,16.5 30.09375,17.175781 29.605469,17.5 L 27.875,18.65625 c -0.347656,0.230469 -0.515625,0.648438 -0.429688,1.058594 L 27.878906,21.75 c 0.125,0.574219 -0.265625,1.132812 -0.851562,1.214844"
           fill-opacity="1"
           fill-rule="nonzero"
           id="path1860"
           style="fill:#000000" /></g><path
         fill="#ffffff"
         d="m 19.372159,8.3882581 -8.414062,8.4101559 c -0.121094,0.125 -0.324219,0.125 -0.449219,0 L 8.0518465,14.341383 c -0.417969,-0.421875 -1.101563,-0.421875 -1.523438,0 -0.417968,0.421875 -0.417968,1.105469 0,1.523437 l 3.4726565,3.472656 c 0.40625,0.40625 1.0625,0.40625 1.46875,0 l 9.425782,-9.4257809 c 0.421875,-0.421875 0.421875,-1.105469 0,-1.523437 -0.421875,-0.421875 -1.105469,-0.421875 -1.523438,0"
         fill-opacity="1"
         fill-rule="nonzero"
         id="path1864" /></g></g></svg>
