<?xml version="1.0" encoding="UTF-8" standalone="no"?>
<!-- Created with Inkscape (http://www.inkscape.org/) -->

<svg
   width="5.1387024mm"
   height="9.5925293mm"
   viewBox="0 0 5.1387024 9.5925293"
   version="1.1"
   id="svg5"
   xml:space="preserve"
   xmlns="http://www.w3.org/2000/svg"><defs
     id="defs2"><clipPath
       id="bf83ff8bc9"><path
         d="M 1.3125,0.574219 H 29 V 28.359375 H 1.3125 Z m 0,0"
         clip-rule="nonzero"
         id="path132-4" /></clipPath><clipPath
       id="d0711781bf"><path
         d="m 66.109375,0.867188 h 14.625 v 27.054687 h -14.625 z m 0,0"
         clip-rule="nonzero"
         id="path135-6" /></clipPath><clipPath
       id="1bd6b12afe-9"><path
         d="m 126.70313,38.179688 h 67.49999 v 67.500002 h -67.49999 z m 0,0"
         clip-rule="nonzero"
         id="path132-3" /></clipPath><clipPath
       id="114905ed8c-9"><path
         d="m 212.95312,38.179688 h 67.5 v 67.500002 h -67.5 z m 0,0"
         clip-rule="nonzero"
         id="path135-0" /></clipPath><clipPath
       id="8eb16f36bc-3"><path
         d="m 40,41 h 66 v 64.67969 H 40 Z m 0,0"
         clip-rule="nonzero"
         id="path138-2" /></clipPath><clipPath
       id="865db6008e-8"><path
         d="M 37.726562,38.238281 H 105.22656 V 105.73828 H 37.726562 Z m 0,0"
         clip-rule="nonzero"
         id="path3022-9" /></clipPath><clipPath
       id="ab09b80bed-7"><path
         d="m 126.60156,38.238281 h 66 v 67.499999 h -66 z m 0,0"
         clip-rule="nonzero"
         id="path3025-9" /></clipPath><clipPath
       id="bb890fb6ce-8"><path
         d="m 213.60547,38.140625 h 68.25 v 68.250005 h -68.25 z m 0,0"
         clip-rule="nonzero"
         id="path3028-4" /></clipPath></defs><g
     id="layer1"
     transform="translate(-163.4249,-122.74191)"><g
       id="g160"
       transform="matrix(0.35277778,0,0,0.35277778,140.10159,122.43598)"
       style="fill:#000000"><g
         clip-path="url(#bf83ff8bc9)"
         id="g142"
         style="fill:#000000"><path
           fill="#ffffff"
           d="m 9.398438,0.574219 c -4.4375,0 -8.085938,3.640625 -8.085938,8.082031 v 11.324219 c 0,4.4375 3.640625,8.082031 8.085938,8.082031 h 11.324218 c 4.433594,0 8.082032,-3.640625 8.082032,-8.082031 V 8.65625 c 0,-4.4375 -3.640626,-8.082031 -8.082032,-8.082031 z m 0,2.496093 h 11.324218 c 3.089844,0 5.582032,2.496094 5.582032,5.585938 v 11.324219 c 0,3.089843 -2.492188,5.582031 -5.582032,5.582031 H 9.398438 C 6.308594,25.5625 3.8125,23.070312 3.8125,19.980469 V 8.65625 c 0,-3.089844 2.496094,-5.585938 5.585938,-5.585938 z M 22.4375,5.804688 c -0.628906,0 -1.132812,0.503906 -1.132812,1.132812 0,0.628906 0.503906,1.132812 1.132812,1.132812 0.632812,0 1.132812,-0.503906 1.132812,-1.132812 0,-0.628906 -0.5,-1.132812 -1.132812,-1.132812 z m -7.378906,1.015624 c -4.125,0 -7.496094,3.375 -7.496094,7.496094 0,4.125 3.371094,7.5 7.496094,7.5 4.125,0 7.496094,-3.375 7.496094,-7.5 0,-4.121094 -3.371094,-7.496094 -7.496094,-7.496094 z m 0,2.5 c 2.777344,0 5,2.21875 5,4.996094 0,2.777344 -2.222656,5 -5,5 -2.777344,0 -5,-2.222656 -5,-5 0,-2.777344 2.222656,-4.996094 5,-4.996094 z m 0,0"
           fill-opacity="1"
           fill-rule="nonzero"
           id="path140"
           style="fill:#000000" /></g><g
         clip-path="url(#d0711781bf)"
         id="g146"
         style="fill:#000000"><path
           fill="#ffffff"
           d="m 77.042969,0.867188 c -3.828125,0 -6.074219,2.019531 -6.074219,6.628906 v 4.050781 h -4.855469 v 4.859375 h 4.855469 v 11.652344 h 4.855469 V 16.40625 h 3.886719 l 0.96875,-4.859375 H 75.824219 V 8.316406 c 0,-1.734375 0.566406,-2.59375 2.195312,-2.59375 h 2.660157 V 1.066406 C 80.222656,1.003906 78.878906,0.867188 77.042969,0.867188 Z m 0,0"
           fill-opacity="1"
           fill-rule="nonzero"
           id="path144"
           style="fill:#000000" /></g></g><g
       id="g195"
       transform="matrix(0.35277778,0,0,0.35277778,19.417215,135.92567)"><g
         clip-path="url(#1bd6b12afe-9)"
         id="g145"><path
           fill="#000000"
           d="m 160.45312,38.179688 c -18.61328,0 -33.74999,15.140624 -33.74999,33.75 0,18.613281 15.13671,33.750002 33.74999,33.750002 18.61329,0 33.75,-15.136721 33.75,-33.750002 0,-18.609376 -15.13671,-33.75 -33.75,-33.75 z m 0,65.132812 c -17.32812,0 -31.38281,-14.050781 -31.38281,-31.382812 0,-17.328126 14.05469,-31.378907 31.38281,-31.378907 17.32813,0 31.38282,14.050781 31.38282,31.378907 0,17.332031 -14.05469,31.382812 -31.38282,31.382812 z m 0,0"
           fill-opacity="1"
           fill-rule="nonzero"
           id="path143" /></g><path
         fill="#000000"
         d="m 177.44531,61.058594 -11.42578,10.871094 11.42578,10.875 c 0.30469,-0.417969 0.5,-0.882813 0.58594,-1.394532 V 62.453125 c -0.0859,-0.511719 -0.28125,-0.976563 -0.58594,-1.394531 z m 0,0"
         fill-opacity="1"
         fill-rule="nonzero"
         id="path147" /><path
         fill="#000000"
         d="M 160.45312,77.230469 155.75,72.753906 144.33203,83.617188 c 0.53906,0.355468 1.12891,0.53125 1.77344,0.53125 h 28.69531 c 0.64453,0 1.23438,-0.175782 1.76953,-0.53125 L 165.15234,72.753906 Z m 0,0"
         fill-opacity="1"
         fill-rule="nonzero"
         id="path149" /><path
         fill="#000000"
         d="m 143.46094,61.058594 c -0.3086,0.417968 -0.50391,0.882812 -0.58985,1.394531 v 18.957031 c 0.0859,0.511719 0.28125,0.976563 0.58985,1.394532 l 11.42578,-10.875 z m 0,0"
         fill-opacity="1"
         fill-rule="nonzero"
         id="path151" /><path
         fill="#000000"
         d="m 155.75,71.109375 4.70312,4.484375 16.11719,-15.347656 c -0.53515,-0.355469 -1.125,-0.53125 -1.76953,-0.53125 h -28.69531 c -0.64453,0 -1.23438,0.175781 -1.77344,0.53125 z m 0,0"
         fill-opacity="1"
         fill-rule="nonzero"
         id="path153" /><g
         clip-path="url(#114905ed8c-9)"
         id="g157"><path
           fill="#000000"
           d="m 246.70312,38.179688 c -18.61328,0 -33.75,15.140624 -33.75,33.75 0,18.613281 15.13672,33.750002 33.75,33.750002 18.60938,0 33.75,-15.136721 33.75,-33.750002 0,-18.609376 -15.14062,-33.75 -33.75,-33.75 z m 0,65.132812 c -17.33203,0 -31.38281,-14.050781 -31.38281,-31.382812 0,-17.328126 14.05078,-31.378907 31.38281,-31.378907 17.32813,0 31.37891,14.050781 31.37891,31.378907 0,17.332031 -14.05078,31.382812 -31.37891,31.382812 z m 0,0"
           fill-opacity="1"
           fill-rule="nonzero"
           id="path155" /></g><path
         fill="#000000"
         d="m 261.00781,84.105469 c 2.09766,-2.519531 0.55469,-3.988281 -0.83984,-5.046875 -1.39453,-1.058594 -4.67578,-2.410156 -5.6836,-1.199219 -1.00781,1.207031 -2.62109,2.71875 -3.86328,2.390625 -2.09765,-0.550781 -4.77734,-3.382812 -6.8164,-5.421875 -2.03907,-2.039063 -4.8711,-4.71875 -5.42188,-6.816406 -0.32812,-1.242188 1.07422,-2.761719 2.39063,-3.863281 1.32031,-1.097657 -0.0664,-4.171876 -1.19922,-5.683594 -1.13281,-1.511719 -2.52735,-2.9375 -5.04688,-0.839844 -2.51953,2.097656 -5.69922,7.683594 0.16797,16.195312 1.50391,2.183594 2.79688,3.441407 4.73438,5.382813 1.9414,1.9375 3.19922,3.230469 5.38281,4.734375 8.51172,5.867188 14.09766,2.6875 16.19531,0.167969 z m 0,0"
         fill-opacity="1"
         fill-rule="nonzero"
         id="path159" /><path
         fill="#000000"
         d="m 253.95703,73.25 c -0.30859,0 -0.57422,-0.101562 -0.80078,-0.308594 -0.22266,-0.207031 -0.35156,-0.460937 -0.375,-0.765625 -0.0664,-0.738281 -0.25781,-1.445312 -0.57422,-2.117187 -0.3125,-0.671875 -0.73437,-1.269532 -1.25781,-1.796875 -0.52344,-0.523438 -1.125,-0.941407 -1.79688,-1.257813 -0.67187,-0.3125 -1.375,-0.503906 -2.11328,-0.570312 -0.16015,-0.01563 -0.30469,-0.05859 -0.44531,-0.132813 -0.14063,-0.07031 -0.25781,-0.167969 -0.35938,-0.289062 -0.10156,-0.121094 -0.17578,-0.253907 -0.22265,-0.40625 -0.0469,-0.148438 -0.0625,-0.300781 -0.0508,-0.457031 0.0156,-0.15625 0.0586,-0.304688 0.13281,-0.445313 0.0703,-0.136719 0.16797,-0.257813 0.28906,-0.359375 0.1211,-0.101562 0.25391,-0.175781 0.40625,-0.222656 0.14844,-0.04687 0.30078,-0.0625 0.45703,-0.04687 0.50391,0.04687 1,0.132812 1.48828,0.265625 0.48829,0.132812 0.96094,0.304687 1.41797,0.519531 0.45703,0.214844 0.89453,0.46875 1.3086,0.757813 0.41406,0.289062 0.80078,0.613281 1.15625,0.972656 0.35937,0.355468 0.68359,0.742187 0.97265,1.15625 0.28907,0.414062 0.54297,0.847656 0.75782,1.304687 0.21484,0.457031 0.39062,0.929688 0.52343,1.417969 0.13282,0.488281 0.22266,0.984375 0.26953,1.488281 0.0117,0.15625 -0.004,0.308594 -0.0508,0.460938 -0.0469,0.148437 -0.12109,0.285156 -0.22265,0.40625 -0.0977,0.121093 -0.21875,0.21875 -0.35938,0.292969 -0.14062,0.07422 -0.28515,0.117187 -0.44531,0.132812 z m 0,0"
         fill-opacity="1"
         fill-rule="nonzero"
         id="path161" /><path
         fill="#000000"
         d="m 259.46094,73.316406 c -0.15235,0 -0.29688,-0.02734 -0.44141,-0.08594 -0.14062,-0.05469 -0.26562,-0.136719 -0.375,-0.242188 -0.11328,-0.105469 -0.19922,-0.226562 -0.26172,-0.367187 -0.0625,-0.140625 -0.0976,-0.285156 -0.10547,-0.4375 -0.0351,-0.730469 -0.13281,-1.449219 -0.30078,-2.15625 -0.16797,-0.710938 -0.40234,-1.398438 -0.69531,-2.066406 -0.29688,-0.664063 -0.64844,-1.300782 -1.0625,-1.902344 -0.41016,-0.601563 -0.875,-1.160156 -1.39063,-1.675782 -0.51562,-0.515624 -1.07421,-0.976562 -1.67578,-1.390624 -0.60156,-0.410157 -1.23437,-0.765626 -1.90234,-1.0625 -0.66797,-0.292969 -1.35547,-0.523438 -2.0625,-0.691407 -0.71094,-0.167969 -1.42969,-0.269531 -2.16016,-0.304687 -0.15625,-0.0078 -0.30468,-0.04297 -0.44922,-0.109375 -0.14062,-0.07031 -0.26562,-0.160157 -0.37109,-0.277344 -0.10547,-0.113281 -0.18359,-0.246094 -0.23828,-0.394531 -0.0547,-0.148438 -0.0781,-0.300782 -0.0703,-0.457032 0.008,-0.15625 0.0469,-0.308593 0.11328,-0.449218 0.0664,-0.140625 0.15625,-0.265625 0.27344,-0.371094 0.11718,-0.105469 0.24609,-0.1875 0.39453,-0.238281 0.14843,-0.05469 0.30078,-0.07813 0.45703,-0.07031 0.875,0.04297 1.73828,0.164063 2.58984,0.367188 0.85156,0.199218 1.67969,0.480468 2.48047,0.832031 0.79688,0.355469 1.55859,0.78125 2.28125,1.277344 0.72266,0.492187 1.39453,1.050781 2.01172,1.667969 0.61719,0.621093 1.17578,1.289062 1.67187,2.011718 0.4961,0.722656 0.91797,1.484375 1.27344,2.285156 0.35547,0.800782 0.63281,1.625 0.83594,2.476563 0.19922,0.851563 0.32422,1.714844 0.36328,2.589844 0.008,0.15625 -0.0156,0.308593 -0.0703,0.457031 -0.0508,0.148438 -0.13281,0.277344 -0.23828,0.394531 -0.10547,0.117188 -0.23047,0.207031 -0.375,0.273438 -0.14063,0.06641 -0.28907,0.101562 -0.44922,0.109375 z m 0,0"
         fill-opacity="1"
         fill-rule="nonzero"
         id="path163" /><g
         clip-path="url(#8eb16f36bc-3)"
         id="g167"><path
           fill="#000000"
           d="m 73.496094,105.65625 c -3.335938,0.008 -6.597656,-0.48828 -9.78125,-1.48828 -3.179688,-0.99609 -6.136719,-2.45313 -8.863282,-4.363282 L 40.4375,104.09375 45.945312,90.449219 c -0.628906,-1 -1.199218,-2.03125 -1.710937,-3.097657 -0.511719,-1.0625 -0.964844,-2.152343 -1.359375,-3.265624 -0.390625,-1.113282 -0.71875,-2.242188 -0.988281,-3.390626 -0.265625,-1.148437 -0.46875,-2.308593 -0.609375,-3.480468 -0.136719,-1.171875 -0.210938,-2.347656 -0.21875,-3.527344 -0.0078,-1.179688 0.04687,-2.355469 0.171875,-3.527344 0.121093,-1.171875 0.304687,-2.335937 0.558593,-3.488281 0.25,-1.152344 0.5625,-2.289063 0.9375,-3.40625 0.378907,-1.117187 0.816407,-2.214844 1.3125,-3.285156 0.496094,-1.070313 1.050782,-2.109375 1.664063,-3.121094 0.613281,-1.011719 1.28125,-1.984375 2,-2.921875 0.722656,-0.9375 1.492187,-1.832031 2.3125,-2.6875 0.820313,-0.851562 1.683594,-1.660156 2.59375,-2.417969 0.910156,-0.761719 1.859375,-1.46875 2.847656,-2.125 0.984375,-0.65625 2.007813,-1.253906 3.0625,-1.800781 1.050781,-0.542969 2.132813,-1.03125 3.242188,-1.457031 1.109375,-0.425781 2.234375,-0.792969 3.382812,-1.097657 1.148438,-0.300781 2.3125,-0.542968 3.488281,-0.71875 1.171876,-0.179687 2.355469,-0.292968 3.542969,-0.339843 1.1875,-0.05078 2.375,-0.03125 3.558594,0.04687 1.1875,0.08203 2.363281,0.226562 3.535156,0.4375 1.167969,0.207031 2.324219,0.480468 3.464844,0.816406 1.136719,0.332031 2.253906,0.730469 3.351563,1.1875 1.097656,0.457031 2.164062,0.972656 3.203124,1.542969 1.039063,0.574219 2.042969,1.203125 3.011719,1.886719 0.96875,0.679687 1.894531,1.414062 2.785157,2.199218 0.886718,0.78125 1.730468,1.613282 2.523437,2.488282 0.796875,0.875 1.542969,1.792968 2.238281,2.75 0.695314,0.957031 1.332034,1.945312 1.917974,2.972656 0.58593,1.027344 1.11328,2.082031 1.57812,3.167968 0.46875,1.082032 0.875,2.1875 1.22266,3.316407 0.34375,1.128906 0.625,2.273437 0.84375,3.433593 0.21875,1.15625 0.375,2.324219 0.46093,3.5 0.0898,1.175782 0.11329,2.355469 0.0742,3.53125 -0.043,1.179688 -0.14843,2.351563 -0.3164,3.519532 -0.17188,1.167968 -0.40625,2.320312 -0.70703,3.460937 -0.29688,1.140625 -0.66016,2.265625 -1.08204,3.367188 -0.42187,1.101562 -0.90625,2.175781 -1.44531,3.226562 -0.54297,1.046875 -1.14062,2.066407 -1.79687,3.050781 -0.656254,0.984376 -1.363285,1.929688 -2.121098,2.835938 -0.757812,0.90625 -1.566406,1.769531 -2.421874,2.589844 -0.855469,0.816406 -1.753907,1.589844 -2.691407,2.308594 -0.941406,0.722656 -1.917969,1.390617 -2.933593,2.003897 -1.015626,0.61719 -2.058594,1.17188 -3.136719,1.6758 -1.074219,0.5 -2.175781,0.9414 -3.300781,1.32031 -1.125,0.38281 -2.265626,0.69922 -3.425782,0.95703 -1.160156,0.25391 -2.332031,0.44922 -3.515625,0.57812 -1.179687,0.12891 -2.367187,0.19141 -3.554687,0.19141 z M 55.1875,97.816406 l 0.367188,0.261719 c 2.605468,1.878906 5.441406,3.312505 8.507812,4.300785 3.066406,0.98437 6.210938,1.47265 9.433594,1.46484 16.871094,0 30.593746,-13.613281 30.593746,-30.351562 0,-16.734376 -13.722652,-30.347657 -30.593746,-30.347657 -16.867188,0 -30.59375,13.613281 -30.59375,30.347657 -0.0039,2.902343 0.40625,5.75 1.226562,8.535156 0.824219,2.785156 2.023438,5.398437 3.605469,7.839844 l 0.253906,0.394531 -4.449219,11.019531 z m 0,0"
           fill-opacity="1"
           fill-rule="nonzero"
           id="path165" /></g><path
         fill="#000000"
         d="m 84.28125,95.042969 c -0.25,0 -0.5,-0.01172 -0.753906,-0.03125 -1.0625,-0.08594 -2.117188,-0.226563 -3.164063,-0.414063 C 79.3125,94.410156 78.277344,94.167969 77.25,93.878906 76.226562,93.589844 75.21875,93.25 74.226562,92.859375 73.238281,92.472656 72.265625,92.035156 71.320312,91.550781 70.371094,91.070312 69.449219,90.542969 68.554688,89.96875 67.65625,89.394531 66.792969,88.78125 65.957031,88.121094 65.125,87.464844 64.324219,86.769531 63.558594,86.03125 62.792969,85.296875 62.066406,84.523438 61.375,83.71875 60.6875,82.910156 60.039062,82.074219 59.433594,81.203125 58.828125,80.335938 58.265625,79.4375 57.75,78.511719 c -0.519531,-0.925781 -0.988281,-1.871094 -1.410156,-2.84375 -0.425782,-0.96875 -0.800782,-1.957031 -1.125,-2.964844 -0.324219,-1.007813 -0.597656,-2.027344 -0.824219,-3.0625 -0.222656,-1.03125 -0.394531,-2.074219 -0.515625,-3.125 -0.121094,-1.050781 -0.1875,-2.105469 -0.203125,-3.160156 -0.01953,-1.058594 0.01953,-2.113281 0.105469,-3.167969 0.05078,-0.585938 0.15625,-1.164062 0.320312,-1.730469 0.164063,-0.566406 0.382813,-1.113281 0.652344,-1.636719 0.273438,-0.527343 0.59375,-1.019531 0.960938,-1.480468 0.371093,-0.460938 0.78125,-0.882813 1.238281,-1.265625 0.453125,-0.378907 0.9375,-0.714844 1.457031,-1 0.519531,-0.285157 1.0625,-0.519531 1.628906,-0.699219 0.566406,-0.179688 1.144532,-0.304688 1.734375,-0.371094 0.589844,-0.06641 1.183594,-0.07422 1.773438,-0.02734 0.867187,0.07031 1.703125,0.257813 2.511719,0.566407 0.234374,0.08984 0.460937,0.1875 0.675781,0.292969 l 0.441406,0.210937 1.90625,14.363281 -0.371094,0.320313 c -0.921875,0.789062 -1.960937,1.367187 -3.117187,1.742187 0.972656,2.964844 2.523437,5.59375 4.644531,7.894532 l 0.0039,0.0039 c 1.726563,1.875 3.722657,3.394531 5.996094,4.558594 0.53125,-1.011719 1.230469,-1.894532 2.097656,-2.644532 l 0.347657,-0.296875 13.613281,2.882813 0.191406,0.410156 c 0.671875,1.433594 0.941406,2.941406 0.808594,4.519531 C 93.246093,87.355469 93.148438,87.902344 93,88.441406 92.851562,88.980469 92.652344,89.5 92.40625,90 c -0.25,0.5 -0.539062,0.976562 -0.875,1.421875 -0.339844,0.449219 -0.714844,0.859375 -1.125,1.238281 -0.414062,0.378906 -0.859375,0.714844 -1.335938,1.011719 -0.476562,0.296875 -0.980468,0.546875 -1.503906,0.75 -0.523437,0.203125 -1.0625,0.355469 -1.613281,0.460937 -0.554687,0.105469 -1.109375,0.15625 -1.671875,0.160157 z M 62.789062,53.757812 c -0.449218,0 -0.894531,0.04297 -1.335937,0.125 -0.441406,0.08203 -0.871094,0.207032 -1.289063,0.367188 -0.417968,0.164062 -0.816406,0.363281 -1.199218,0.597656 -0.378906,0.238282 -0.734375,0.507813 -1.0625,0.808594 -0.332032,0.300781 -0.628906,0.632812 -0.898438,0.988281 -0.269531,0.359375 -0.5,0.738281 -0.699218,1.136719 -0.195313,0.402344 -0.355469,0.816406 -0.472657,1.246094 -0.117187,0.429687 -0.195312,0.867187 -0.234375,1.308594 -0.08203,0.996093 -0.117187,1.992187 -0.09766,2.988281 0.01563,1 0.07813,1.992187 0.195312,2.984375 0.113282,0.992187 0.277344,1.972656 0.488282,2.949218 0.210937,0.976563 0.46875,1.9375 0.777344,2.890626 0.308593,0.949218 0.660156,1.882812 1.0625,2.796874 0.398437,0.917969 0.839843,1.808594 1.328124,2.683594 0.488282,0.871094 1.019532,1.71875 1.589844,2.539063 0.574219,0.820312 1.183594,1.613281 1.835938,2.371093 0.648437,0.761719 1.335937,1.492188 2.058594,2.183594 0.722656,0.695313 1.476562,1.351563 2.265624,1.972656 0.785157,0.621094 1.601563,1.203126 2.449219,1.742188 0.84375,0.542969 1.714844,1.042969 2.609375,1.496094 0.894532,0.457031 1.808594,0.871094 2.742188,1.238281 0.9375,0.367187 1.886718,0.6875 2.855468,0.960937 0.964844,0.273438 1.945313,0.5 2.933594,0.679688 0.988282,0.179688 1.984375,0.3125 2.988282,0.394531 0.277343,0.01953 0.558593,0.02734 0.835937,0.01953 0.28125,-0.01172 0.558594,-0.03516 0.835937,-0.07812 0.277344,-0.04297 0.550782,-0.09766 0.820313,-0.171876 0.269531,-0.07422 0.53125,-0.160156 0.792969,-0.265624 0.257812,-0.101563 0.511718,-0.21875 0.757812,-0.351563 0.246094,-0.132813 0.484375,-0.28125 0.710938,-0.4375 0.230468,-0.160156 0.449218,-0.335937 0.65625,-0.519531 0.207031,-0.183594 0.40625,-0.378906 0.589844,-0.589844 0.1875,-0.207031 0.359374,-0.425781 0.519531,-0.652344 0.160156,-0.226562 0.304687,-0.460937 0.4375,-0.707031 0.132812,-0.246094 0.25,-0.496094 0.355469,-0.753906 0.101562,-0.257813 0.191406,-0.519531 0.261718,-0.789063 0.07422,-0.269531 0.128906,-0.539062 0.167969,-0.8125 0.04297,-0.277344 0.06641,-0.550781 0.07422,-0.828125 0.0078,-0.277343 0,-0.554687 -0.02344,-0.832031 -0.02344,-0.277344 -0.0625,-0.550781 -0.121094,-0.820312 -0.08203,-0.398438 -0.199218,-0.789063 -0.347656,-1.167969 L 79.203125,80.953125 c -0.742187,0.722656 -1.300781,1.566406 -1.675781,2.527344 l -0.351563,0.90625 -0.882812,-0.410157 C 73.582031,82.730469 71.203125,81.027344 69.152344,78.875 l -0.535156,-0.01953 0.01953,-0.539063 C 66.230469,75.625 64.539062,72.542969 63.5625,69.078125 l -0.261719,-0.933594 0.957031,-0.195312 c 1.058594,-0.214844 2.019532,-0.644531 2.878907,-1.289063 L 65.492188,54.269531 c -0.03125,-0.01172 -0.0625,-0.02344 -0.09375,-0.03516 -0.644532,-0.246094 -1.3125,-0.398437 -2.003907,-0.453125 -0.203125,-0.01563 -0.40625,-0.02344 -0.605469,-0.02344 z m 0,0"
         fill-opacity="1"
         fill-rule="nonzero"
         id="path169" /><g
         id="g3070"
         transform="matrix(0.5,0,0,0.5,349.90582,-58.722341)"><g
           clip-path="url(#865db6008e-8)"
           id="g3035" /><g
           clip-path="url(#ab09b80bed-7)"
           id="g3039" /><path
           fill="#040606"
           d="m 241.91797,64.480469 c -6.375,3.683593 3.35547,21.921875 10.33203,17.894531 l 6.46875,11.203125 c -2.94531,1.699219 -5.4375,2.769531 -8.84766,0.820313 -9.47656,-5.417969 -19.91015,-23.476563 -19.60937,-34.25 0.10156,-3.742188 2.30469,-5.207032 5.1875,-6.871094 z m 0,0"
           fill-opacity="1"
           fill-rule="evenodd"
           id="path3041" /><path
           fill="#040606"
           d="m 244.59375,64.175781 c -0.6875,0.398438 -1.57422,0.160157 -1.97266,-0.527343 l -6.09765,-10.5625 c -0.39844,-0.6875 -0.16016,-1.574219 0.52734,-1.972657 l 3.20313,-1.851562 c 0.6914,-0.398438 1.57812,-0.160157 1.97656,0.527343 l 6.09765,10.566407 c 0.39844,0.6875 0.16016,1.574219 -0.52734,1.972656 z m 0,0"
           fill-opacity="1"
           fill-rule="evenodd"
           id="path3043" /><path
           fill="#040606"
           d="m 261.25391,93.035156 c -0.6875,0.398438 -1.57422,0.160156 -1.97266,-0.527344 l -6.09766,-10.566406 c -0.39843,-0.6875 -0.16015,-1.574218 0.52735,-1.972656 l 3.20703,-1.847656 c 0.6875,-0.398438 1.57422,-0.160156 1.97265,0.527344 l 6.09766,10.5625 c 0.39844,0.6875 0.16016,1.574218 -0.52734,1.972656 z m 0,0"
           fill-opacity="1"
           fill-rule="evenodd"
           id="path3045" /><g
           clip-path="url(#bb890fb6ce-8)"
           id="g3049"><path
             fill="#040606"
             d="m 247.71875,38.140625 h 0.004 v 0.0078 c 9.42187,0 17.94921,3.816406 24.11718,9.988281 6.16797,6.167969 9.98438,14.695312 9.98828,24.117187 h 0.008 v 0.0039 h -0.008 c -0.004,9.421876 -3.8164,17.953126 -9.98828,24.121094 -6.16797,6.167973 -14.69531,9.984373 -24.12109,9.984373 v 0.008 -0.008 c -9.42188,0 -17.95313,-3.8164 -24.12109,-9.984373 -6.16797,-6.171875 -9.98438,-14.699218 -9.98438,-24.121094 h -0.008 v -0.0039 h 0.008 c 0,-9.421875 3.81641,-17.949218 9.98438,-24.117187 6.17187,-6.171875 14.69921,-9.988281 24.12109,-9.988281 z m 0.004,4.070313 v 0.0078 h -0.004 v -0.0078 c -8.28516,0 -15.79688,3.367187 -21.23828,8.804687 -5.4375,5.441406 -8.80469,12.953125 -8.80469,21.238281 h 0.008 v 0.0039 h -0.008 c 0,8.285157 3.36719,15.796876 8.80469,21.238282 5.4414,5.4375 12.95312,8.804682 21.23828,8.804682 v -0.008 h 0.004 v 0.008 c 8.28515,0 15.79687,-3.367182 21.23437,-8.804682 5.44141,-5.441406 8.80859,-12.953125 8.80859,-21.238282 h -0.008 v -0.0039 h 0.008 c 0,-8.285156 -3.36718,-15.796875 -8.80468,-21.234375 -5.44141,-5.441406 -12.95313,-8.808593 -21.23828,-8.808593 z m 0,0"
             fill-opacity="1"
             fill-rule="nonzero"
             id="path3047" /></g></g></g></g></svg>
