<?xml version="1.0" encoding="UTF-8" standalone="no"?>
<!-- Created with Inkscape (http://www.inkscape.org/) -->

<svg
   width="49.635349mm"
   height="15.235588mm"
   viewBox="0 0 49.635349 15.235588"
   version="1.1"
   id="svg5"
   xml:space="preserve"
   xmlns="http://www.w3.org/2000/svg"><defs
     id="defs2"><clipPath
       id="ae0a7d36fb"><path
         d="M 230.45312,40 H 337.35937 V 51 H 230.45312 Z m 0,0"
         clip-rule="nonzero"
         id="path134" /></clipPath><clipPath
       id="ababd74e73"><path
         d="M 230.45312,9.570312 H 337.35937 V 19 H 230.45312 Z m 0,0"
         clip-rule="nonzero"
         id="path137" /></clipPath><clipPath
       id="7516034407"><path
         d="m 230.46484,71.871094 h 106.89453 v 9.480468 H 230.46484 Z m 0,0"
         clip-rule="nonzero"
         id="path140" /></clipPath></defs><g
     id="layer1"
     transform="translate(-51.302121,-85.155164)"><g
       id="g222"
       transform="matrix(0.35277778,0,0,0.35277778,46.736536,78.539711)"><g
         clip-path="url(#ae0a7d36fb)"
         id="g147"><path
           fill="#000000"
           d="m 332.6875,50.144531 h -97.54688 c -2.58203,0 -4.67578,-2.09375 -4.67578,-4.683593 0,-2.585938 2.09375,-4.679688 4.67578,-4.679688 h 97.54688 c 2.58203,0 4.67187,2.09375 4.67187,4.679688 0,2.589843 -2.08984,4.683593 -4.67187,4.683593"
           fill-opacity="1"
           fill-rule="nonzero"
           id="path145" /></g><g
         clip-path="url(#ababd74e73)"
         id="g151"><path
           fill="#000000"
           d="m 332.6875,18.933594 h -97.54688 c -2.58203,0 -4.67578,-2.09375 -4.67578,-4.679688 0,-2.585937 2.09375,-4.683594 4.67578,-4.683594 h 97.54688 c 2.58203,0 4.67187,2.097657 4.67187,4.683594 0,2.585938 -2.08984,4.679688 -4.67187,4.679688"
           fill-opacity="1"
           fill-rule="nonzero"
           id="path149" /></g><g
         clip-path="url(#7516034407)"
         id="g155"><path
           fill="#000000"
           d="m 332.6875,81.355469 h -97.54688 c -2.58203,0 -4.67578,-2.09375 -4.67578,-4.683594 0,-2.585937 2.09375,-4.679687 4.67578,-4.679687 h 97.54688 c 2.58203,0 4.67187,2.09375 4.67187,4.679687 0,2.589844 -2.08984,4.683594 -4.67187,4.683594"
           fill-opacity="1"
           fill-rule="nonzero"
           id="path153" /></g><g
         fill="#000000"
         fill-opacity="1"
         id="g163"><g
           transform="translate(9.723063,51.596202)"
           id="g161"><g
             id="g159"><path
               d="m 3.21875,0 v -32.84375 h 7.34375 v 26.875 H 34.59375 V 0 Z m 0,0"
               id="path157" /></g></g></g><g
         fill="#000000"
         fill-opacity="1"
         id="g171"><g
           transform="translate(45.689064,51.596202)"
           id="g169"><g
             id="g167"><path
               d="m 14.65625,0.234375 c -4.105469,0 -7.308594,-1.015625 -9.609375,-3.046875 -2.292969,-2.039062 -3.4375,-5.039062 -3.4375,-9 0,-3.976562 1.144531,-6.984375 3.4375,-9.015625 2.300781,-2.039063 5.503906,-3.0625 9.609375,-3.0625 h 8.5 c 4.101562,0 7.300781,1.023437 9.59375,3.0625 2.300781,2.03125 3.453125,5.039063 3.453125,9.015625 0,3.960938 -1.152344,6.960938 -3.453125,9 -2.292969,2.03125 -5.492188,3.046875 -9.59375,3.046875 z m 0,-5.28125 h 8.5 c 1.988281,0 3.507812,-0.550781 4.5625,-1.65625 1.0625,-1.101563 1.59375,-2.804687 1.59375,-5.109375 0,-2.320312 -0.53125,-4.035156 -1.59375,-5.140625 -1.054688,-1.101563 -2.574219,-1.65625 -4.5625,-1.65625 h -8.5 c -1.992188,0 -3.515625,0.554687 -4.578125,1.65625 C 9.023438,-15.847656 8.5,-14.132812 8.5,-11.8125 c 0,2.304688 0.523438,4.007812 1.578125,5.109375 1.0625,1.105469 2.585937,1.65625 4.578125,1.65625 z m 0,0"
               id="path165" /></g></g></g><g
         fill="#000000"
         fill-opacity="1"
         id="g179"><g
           transform="translate(83.492409,51.596202)"
           id="g177"><g
             id="g175"><path
               d="M 8.125,10.34375 V 5.046875 H 22 c 1.84375,0 2.765625,-0.933594 2.765625,-2.796875 V 0 H 14.65625 c -4.105469,0 -7.308594,-1.007812 -9.609375,-3.03125 -2.292969,-2.019531 -3.4375,-4.945312 -3.4375,-8.78125 0,-3.851562 1.144531,-6.789062 3.4375,-8.8125 2.300781,-2.019531 5.503906,-3.03125 9.609375,-3.03125 H 31.421875 V 3.078125 c 0,2.175781 -0.632813,3.929687 -1.890625,5.265625 -1.25,1.332031 -3.210938,2 -5.875,2 z m 6.53125,-15.625 H 24.765625 V -18.375 H 14.65625 c -1.992188,0 -3.515625,0.546875 -4.578125,1.640625 C 9.023438,-15.648438 8.5,-14.007812 8.5,-11.8125 c 0,2.179688 0.523438,3.8125 1.578125,4.90625 1.0625,1.085938 2.585937,1.625 4.578125,1.625 z m 0,0"
               id="path173" /></g></g></g><g
         fill="#000000"
         fill-opacity="1"
         id="g187"><g
           transform="translate(117.43734,51.596202)"
           id="g185"><g
             id="g183"><path
               d="m 14.65625,0.234375 c -4.105469,0 -7.308594,-1.015625 -9.609375,-3.046875 -2.292969,-2.039062 -3.4375,-5.039062 -3.4375,-9 0,-3.976562 1.144531,-6.984375 3.4375,-9.015625 2.300781,-2.039063 5.503906,-3.0625 9.609375,-3.0625 h 8.5 c 4.101562,0 7.300781,1.023437 9.59375,3.0625 2.300781,2.03125 3.453125,5.039063 3.453125,9.015625 0,3.960938 -1.152344,6.960938 -3.453125,9 -2.292969,2.03125 -5.492188,3.046875 -9.59375,3.046875 z m 0,-5.28125 h 8.5 c 1.988281,0 3.507812,-0.550781 4.5625,-1.65625 1.0625,-1.101563 1.59375,-2.804687 1.59375,-5.109375 0,-2.320312 -0.53125,-4.035156 -1.59375,-5.140625 -1.054688,-1.101563 -2.574219,-1.65625 -4.5625,-1.65625 h -8.5 c -1.992188,0 -3.515625,0.554687 -4.578125,1.65625 C 9.023438,-15.847656 8.5,-14.132812 8.5,-11.8125 c 0,2.304688 0.523438,4.007812 1.578125,5.109375 1.0625,1.105469 2.585937,1.65625 4.578125,1.65625 z m 0,0"
               id="path181" /></g></g></g></g></g></svg>
